<svg width="170" height="36" viewBox="0 0 170 36" fill="none" xmlns="http://www.w3.org/2000/svg">
<path d="M159.152 26.336C157.808 26.336 156.568 26.12 155.432 25.688C154.296 25.256 153.304 24.648 152.456 23.864C151.624 23.064 150.976 22.136 150.512 21.08C150.048 20.024 149.816 18.864 149.816 17.6C149.816 16.336 150.048 15.176 150.512 14.12C150.976 13.064 151.624 12.144 152.456 11.36C153.304 10.56 154.296 9.944 155.432 9.512C156.568 9.08 157.808 8.864 159.152 8.864C160.512 8.864 161.752 9.08 162.872 9.512C164.008 9.944 164.992 10.56 165.824 11.36C166.656 12.144 167.304 13.064 167.768 14.12C168.248 15.176 168.488 16.336 168.488 17.6C168.488 18.864 168.248 20.032 167.768 21.104C167.304 22.16 166.656 23.08 165.824 23.864C164.992 24.648 164.008 25.256 162.872 25.688C161.752 26.12 160.512 26.336 159.152 26.336ZM159.152 22.4C159.792 22.4 160.384 22.288 160.928 22.064C161.488 21.84 161.968 21.52 162.368 21.104C162.784 20.672 163.104 20.16 163.328 19.568C163.568 18.976 163.688 18.32 163.688 17.6C163.688 16.864 163.568 16.208 163.328 15.632C163.104 15.04 162.784 14.536 162.368 14.12C161.968 13.688 161.488 13.36 160.928 13.136C160.384 12.912 159.792 12.8 159.152 12.8C158.512 12.8 157.912 12.912 157.352 13.136C156.808 13.36 156.328 13.688 155.912 14.12C155.512 14.536 155.192 15.04 154.952 15.632C154.728 16.208 154.616 16.864 154.616 17.6C154.616 18.32 154.728 18.976 154.952 19.568C155.192 20.16 155.512 20.672 155.912 21.104C156.328 21.52 156.808 21.84 157.352 22.064C157.912 22.288 158.512 22.4 159.152 22.4Z" fill="#333333"/>
<path d="M140.08 26.336C138.752 26.336 137.52 26.128 136.384 25.712C135.248 25.28 134.264 24.672 133.432 23.888C132.616 23.104 131.976 22.184 131.512 21.128C131.048 20.056 130.816 18.88 130.816 17.6C130.816 16.32 131.048 15.152 131.512 14.096C131.976 13.024 132.624 12.096 133.456 11.312C134.288 10.528 135.272 9.928 136.408 9.512C137.56 9.08 138.816 8.864 140.176 8.864C141.76 8.864 143.176 9.128 144.424 9.656C145.672 10.184 146.704 10.944 147.52 11.936L144.496 14.672C143.92 14.048 143.296 13.584 142.624 13.28C141.968 12.96 141.232 12.8 140.416 12.8C139.696 12.8 139.04 12.912 138.448 13.136C137.856 13.36 137.352 13.688 136.936 14.12C136.52 14.536 136.192 15.04 135.952 15.632C135.728 16.208 135.616 16.864 135.616 17.6C135.616 18.304 135.728 18.952 135.952 19.544C136.192 20.136 136.52 20.648 136.936 21.08C137.352 21.496 137.848 21.824 138.424 22.064C139.016 22.288 139.664 22.4 140.368 22.4C141.072 22.4 141.76 22.288 142.432 22.064C143.104 21.824 143.784 21.424 144.472 20.864L147.136 24.2C146.176 24.888 145.064 25.416 143.8 25.784C142.536 26.152 141.296 26.336 140.08 26.336ZM142.936 23.576V17.24H147.136V24.2L142.936 23.576Z" fill="#333333"/>
<path fill-rule="evenodd" clip-rule="evenodd" d="M124 18C124 20.8737 123.401 23.5901 122.337 26H109C111.463 22.2281 114 17.6606 114 13C114 7.00236 109.938 1.95335 104.416 0.453392C105.568 0.156712 106.768 0 108 0C116.837 0 124 8.05888 124 18ZM110 13C110 8.02944 105.971 4 101 4C94.3493 4 92 12.5071 92 18C92 27.9411 99.1634 36 108 36C112.739 36 116.996 33.6825 119.926 30H101C101.352 29.5514 101.72 29.0891 102.099 28.6142C105.616 24.2012 110 18.6997 110 13Z" fill="#7859CF"/>
<path d="M22.9587 26V9.2H30.6387C32.1747 9.2 33.4947 9.448 34.5987 9.944C35.7187 10.44 36.5827 11.16 37.1907 12.104C37.7987 13.032 38.1027 14.136 38.1027 15.416C38.1027 16.68 37.7987 17.776 37.1907 18.704C36.5827 19.616 35.7187 20.32 34.5987 20.816C33.4947 21.296 32.1747 21.536 30.6387 21.536H25.5987L27.7107 19.544V26H22.9587ZM33.3507 26L29.1747 19.88H34.2387L38.4387 26H33.3507ZM27.7107 20.048L25.5987 17.864H30.3507C31.3427 17.864 32.0787 17.648 32.5587 17.216C33.0547 16.784 33.3027 16.184 33.3027 15.416C33.3027 14.632 33.0547 14.024 32.5587 13.592C32.0787 13.16 31.3427 12.944 30.3507 12.944H25.5987L27.7107 10.76V20.048ZM41.2044 26V9.2H45.9564V26H41.2044ZM49.8172 26V9.2H53.7292L62.9932 20.384H61.1452V9.2H65.8012V26H61.8892L52.6252 14.816H54.4732V26H49.8172ZM73.8811 22.28L73.6171 16.952L80.8411 9.2H86.0731L78.8731 17L76.2331 19.76L73.8811 22.28ZM69.6331 26V9.2H74.3371V26H69.6331ZM80.9131 26L75.4411 19.064L78.5371 15.752L86.4331 26H80.9131Z" fill="#333333"/>
<path d="M2.85188 9.2H10.7959C12.6359 9.2 14.2679 9.544 15.6919 10.232C17.1159 10.92 18.2199 11.896 19.0039 13.16C19.7879 14.424 20.1799 15.904 20.1799 17.6C20.1799 19.296 19.7879 20.776 19.0039 22.04C18.2199 23.304 17.1159 24.28 15.6919 24.968C14.2679 25.656 12.6359 26 10.7959 26H2.85188V9.2ZM10.6039 22.208C12.0439 22.208 13.1959 21.8 14.0599 20.984C14.9399 20.168 15.3799 19.04 15.3799 17.6C15.3799 16.16 14.9399 15.032 14.0599 14.216C13.1959 13.4 12.0439 12.992 10.6039 12.992H7.60388V22.208H10.6039Z" fill="#333333"/>
</svg>
